<svg xmlns="http://www.w3.org/2000/svg" width="32" height="32" viewBox="0 0 128 128"><path fill="#24a1c1" d="M63.998 6.385c5.807 0 10.967 4.096 10.967 9.14c0 5.042-4.912 9.138-10.968 9.138q-1.034-.001-2.706-.341a3.65 3.65 0 0 0-2.536.405l-39.314 22.36a1.83 1.83 0 0 0 .008 3.185l42.618 23.922a3.66 3.66 0 0 0 3.564.012l42.846-23.82a1.823 1.823 0 0 0 .016-3.186l-13.37-7.587a3.66 3.66 0 0 0-3.579-.02l-14.109 7.826a1.26 1.26 0 0 0-.637.955l-.005.136c0 5.045-4.912 9.137-10.967 9.137c-6.05 0-10.963-4.091-10.963-9.138c0-5.044 4.913-9.14 10.964-9.14c.227 0 .483.018.775.037l.464.05l.512.06a3.66 3.66 0 0 0 2.263-.423l20.873-11.578a5.48 5.48 0 0 1 5.144-.09l.224.115l29.144 16.546c3.653 2.073 3.693 7.295.15 9.448l-.195.115l-19.5 10.836a1.83 1.83 0 0 0-.936 1.622a1.84 1.84 0 0 0 .976 1.592l19.31 10.16c3.836 2.015 3.925 7.472.166 9.614L66.55 120.895a5.5 5.5 0 0 1-5.437 0L2.802 87.611c-3.766-2.15-3.662-7.619.183-9.622l19.521-10.185a1.832 1.832 0 0 0 .05-3.217l-19.76-11.09c-3.652-2.052-3.729-7.249-.218-9.43l.195-.119l48.523-27.59a3.68 3.68 0 0 0 1.641-1.967l.06-.195c1.707-5.072 5.58-7.81 11.001-7.81Zm27.075 67.32L67.115 87.482l-.224.122a5.46 5.46 0 0 1-5.18-.098L37.827 74.039a3.64 3.64 0 0 0-3.477-.052l-13.768 7.195a1.83 1.83 0 0 0-.057 3.21l42.062 24.069a3.66 3.66 0 0 0 3.617 0l42.422-24.238a1.83 1.83 0 0 0 .926-1.619a1.83 1.83 0 0 0-.978-1.588l-13.987-7.38a3.65 3.65 0 0 0-3.516.07zm0 0"/></svg>
